<svg width="531" height="67" viewBox="0 0 531 67" fill="none" xmlns="http://www.w3.org/2000/svg">
<path d="M498.106 0C510.431 0 521.812 3.95563 531 10.6398V67H444.484C443.446 62.8568 442.892 58.5269 442.892 54.0702C442.892 24.208 467.612 0 498.106 0Z" fill="currentColor"/>
<path d="M432.319 36.4386C453.743 36.4386 472.255 48.9138 480.996 67H383.641C392.382 48.9138 410.894 36.4386 432.319 36.4386Z" fill="currentColor"/>
<path d="M350.671 36.4386C370.466 36.4386 387.569 48.914 395.645 67H305.698C313.774 48.914 330.877 36.4386 350.671 36.4386Z" fill="currentColor"/>
<path d="M259.626 19.9825C291.858 19.9825 318.474 40.4703 322.528 67H196.724C200.778 40.4703 227.395 19.9825 259.626 19.9825Z" fill="currentColor"/>
<path d="M171.518 36.4386C191.545 36.4386 208.85 48.9138 217.021 67H126.015C134.185 48.9138 151.49 36.4386 171.518 36.4386Z" fill="currentColor"/>
<path d="M92.8075 36.4386C112.835 36.4386 130.14 48.9138 138.311 67H47.3044C55.4752 48.9138 72.78 36.4386 92.8075 36.4386Z" fill="currentColor"/>
<path d="M21.7334 2.35088C55.7961 2.35088 83.4093 26.5589 83.4093 56.4211C83.4093 60.0415 83.0028 63.5788 82.2288 67H0V5.80717C6.7597 3.57526 14.0833 2.35088 21.7334 2.35088Z" fill="currentColor"/>
</svg>
