<svg width="50" height="50" viewBox="0 0 50 50" fill="none" xmlns="http://www.w3.org/2000/svg">
<circle cx="25" cy="25" r="25" fill="#02883F"/>
<circle cx="17.5" cy="22.5" r="8.5" fill="white"/>
<path d="M17.5 14C18.7868 14 20.0064 14.287 21.0996 14.7988C21.665 15.5511 22 16.4865 22 17.5C22 19.9853 19.9853 22 17.5 22C15.0147 22 13 19.9853 13 17.5C13 16.4867 13.3342 15.551 13.8994 14.7988C14.9928 14.2867 16.2128 14 17.5 14Z" fill="#131313"/>
<circle cx="33.5" cy="22.5" r="8.5" fill="white"/>
<path d="M33.5 14C34.7868 14 36.0064 14.287 37.0996 14.7988C37.665 15.5511 38 16.4865 38 17.5C38 19.9853 35.9853 22 33.5 22C31.0147 22 29 19.9853 29 17.5C29 16.4867 29.3342 15.551 29.8994 14.7988C30.9928 14.2867 32.2128 14 33.5 14Z" fill="#131313"/>
</svg>
